<svg fill="red" version="1.1" xmlns="http://www.w3.org/2000/svg" xmlns:xlink="http://www.w3.org/1999/xlink" x="0px" y="0px" viewBox="0 0 1000 1000" enable-background="new 0 0 1000 1000" xml:space="preserve">
<metadata> Svg Vector Icons : http://www.onlinewebfonts.com/icon </metadata>
<g><g><path d="M285.6,990c39.5-67,107.7-111.1,183.8-120.5v-97c-137.4-15.4-245-131-245-272.5v-61.2c0-16.9,13.7-30.6,30.6-30.6c16.9,0,30.6,13.7,30.6,30.6V500c0,118.2,96.2,214.4,214.4,214.4c118.2,0,214.4-96.2,214.4-214.4v-61.2c0-16.9,13.7-30.6,30.6-30.6c16.9,0,30.6,13.7,30.6,30.6V500c0,141.5-107.6,257.1-245,272.5v97c76.1,9.4,144.3,53.5,183.7,120.5H593.8c-16-36.8-52.1-60.8-92.2-61.3c-40.1-0.4-76.7,24.8-93.4,61.3H285.6z"/><g><path d="M500,10c-84.6,0-153.1,68.6-153.1,153.1v153.1V500c0,84.6,68.5,153.1,153.1,153.1c84.6,0,153.1-68.5,153.1-153.1V316.2V163.1C653.1,78.6,584.6,10,500,10z M408.1,316.2V163.1c0-50.7,41.2-91.9,91.9-91.9c50.7,0,91.9,41.2,91.9,91.9v153.1H408.1z"/></g></g><g></g><g></g><g></g><g></g><g></g><g></g><g></g><g></g><g></g><g></g><g></g><g></g><g></g><g></g><g></g></g>
</svg>